<svg width="29" height="29" viewBox="0 0 29 29" fill="none" xmlns="http://www.w3.org/2000/svg">
<path d="M5.96919 19.4058C5.22215 19.4021 4.48494 19.5761 3.81835 19.9133L0.169188 21.75C0.118369 21.7733 0.0753642 21.8108 0.0453514 21.8579C0.0153387 21.9051 -0.000402912 21.9599 2.16182e-05 22.0158V28.5408C-0.000637572 28.5937 0.0137907 28.6456 0.0416138 28.6906C0.0694369 28.7355 0.109501 28.7716 0.157105 28.7946C0.202096 28.8237 0.254549 28.8392 0.308147 28.8392C0.361744 28.8392 0.414198 28.8237 0.459188 28.7946L4.59169 26.1967C4.66605 26.1485 4.75045 26.118 4.83842 26.1075C4.9264 26.0971 5.0156 26.1069 5.09919 26.1362C17.4967 30.2929 13.2917 30.3654 26.9821 23.4417C27.0752 23.3946 27.1548 23.3247 27.2134 23.2385C27.2721 23.1523 27.308 23.0526 27.3176 22.9488C27.3273 22.845 27.3104 22.7404 27.2687 22.6448C27.2269 22.5493 27.1616 22.4659 27.0788 22.4025C26.6874 22.0579 26.2121 21.8229 25.7007 21.721C25.1893 21.6192 24.6602 21.6542 24.1667 21.8225L20.0342 23.1879C19.9582 23.2115 19.8878 23.2505 19.8276 23.3025C19.7673 23.3545 19.7183 23.4183 19.6838 23.49C19.4854 23.8949 19.1777 24.2362 18.7955 24.4754C18.4132 24.7145 17.9717 24.842 17.5209 24.8433H12.6875C12.5273 24.8433 12.3736 24.7797 12.2603 24.6664C12.147 24.5531 12.0834 24.3994 12.0834 24.2392C12.0834 24.0789 12.147 23.9253 12.2603 23.812C12.3736 23.6987 12.5273 23.635 12.6875 23.635H17.5209C17.8413 23.635 18.1487 23.5077 18.3753 23.2811C18.6019 23.0545 18.7292 22.7471 18.7292 22.4267C18.7292 22.1062 18.6019 21.7989 18.3753 21.5722C18.1487 21.3456 17.8413 21.2183 17.5209 21.2183H13.4971C13.3669 21.2151 13.2407 21.173 13.1346 21.0975C11.7842 20.0711 10.1529 19.4809 8.45835 19.4058H5.96919ZM21.1459 0C19.5924 0 18.0739 0.460639 16.7823 1.32367C15.4907 2.18669 14.484 3.41335 13.8896 4.84851C13.2951 6.28367 13.1395 7.86288 13.4426 9.38644C13.7457 10.91 14.4937 12.3095 15.5921 13.4079C16.6905 14.5063 18.09 15.2544 19.6136 15.5574C21.1371 15.8605 22.7164 15.7049 24.1515 15.1105C25.5867 14.516 26.8133 13.5093 27.6764 12.2177C28.5394 10.9261 29 9.40757 29 7.85417C28.9968 5.77209 28.1683 3.77621 26.6961 2.30396C25.2238 0.831712 23.2279 0.00319582 21.1459 0ZM22.0521 12.3733V12.9896C22.0521 13.2299 21.9566 13.4604 21.7867 13.6304C21.6167 13.8004 21.3862 13.8958 21.1459 13.8958C20.9055 13.8958 20.675 13.8004 20.505 13.6304C20.3351 13.4604 20.2396 13.2299 20.2396 12.9896V12.3854H19.3334C19.093 12.3854 18.8625 12.2899 18.6925 12.12C18.5226 11.95 18.4271 11.7195 18.4271 11.4792C18.4271 11.2388 18.5226 11.0083 18.6925 10.8384C18.8625 10.6684 19.093 10.5729 19.3334 10.5729H21.75C21.917 10.5748 22.0793 10.5179 22.2087 10.4124C22.3381 10.3068 22.4263 10.1591 22.4579 9.99513C22.4896 9.83116 22.4627 9.66129 22.3819 9.51513C22.3011 9.36898 22.1715 9.25583 22.0159 9.19542L19.5267 8.1925C19.014 7.97601 18.5872 7.59624 18.3126 7.11221C18.038 6.62818 17.9309 6.067 18.0081 5.51586C18.0852 4.96473 18.3423 4.45452 18.7393 4.06451C19.1363 3.6745 19.6509 3.42654 20.2034 3.35917V2.71875C20.2034 2.4784 20.2988 2.24789 20.4688 2.07793C20.6387 1.90798 20.8692 1.8125 21.1096 1.8125C21.35 1.8125 21.5805 1.90798 21.7504 2.07793C21.9204 2.24789 22.0159 2.4784 22.0159 2.71875V3.32292H22.9584C23.1987 3.32292 23.4292 3.4184 23.5992 3.58835C23.7691 3.75831 23.8646 3.98881 23.8646 4.22917C23.8646 4.46952 23.7691 4.70003 23.5992 4.86998C23.4292 5.03994 23.1987 5.13542 22.9584 5.13542H20.5417C20.3526 5.13542 20.1713 5.21053 20.0376 5.34423C19.9039 5.47792 19.8288 5.65926 19.8288 5.84833C19.8265 5.99152 19.8681 6.13197 19.948 6.25079C20.0279 6.36961 20.1424 6.46109 20.2759 6.51292L22.765 7.51583C23.2777 7.73232 23.7045 8.11209 23.9791 8.59612C24.2537 9.08015 24.3608 9.64134 24.2836 10.1925C24.2065 10.7436 23.9494 11.2538 23.5524 11.6438C23.1555 12.0338 22.6408 12.2818 22.0884 12.3492L22.0521 12.3733Z" fill="#262626"/>
</svg>
