<svg width="28" height="28" viewBox="0 0 28 28" fill="none" xmlns="http://www.w3.org/2000/svg">
<path fill-rule="evenodd" clip-rule="evenodd" d="M6.17491 7.56117C6.32678 5.73861 7.15799 4.03968 8.50373 2.80123C9.84947 1.56279 11.6115 0.875267 13.4403 0.875H14.5586C17.6782 0.875 20.3686 2.842 21.4011 5.64317C21.7406 6.56367 20.956 7.37275 20.0711 7.3535C19.2894 7.336 18.4385 7.322 17.5184 7.3115C16.9526 7.30508 16.4882 6.96442 16.1779 6.58117C15.8224 6.1419 15.3423 5.82042 14.8007 5.65893C14.2592 5.49745 13.6814 5.50351 13.1434 5.67632C12.6053 5.84913 12.1321 6.18061 11.7859 6.62724C11.4396 7.07387 11.2365 7.61477 11.2032 8.17892L11.0137 11.3942C11.9205 11.3818 12.9159 11.3754 13.9997 11.375C17.7797 11.375 20.4642 11.4619 22.1915 11.5477C24.0395 11.6392 25.597 12.9692 25.7761 14.8878C25.877 15.9647 25.9581 17.4055 25.9581 19.25C25.9581 21.0945 25.8764 22.5353 25.7761 23.6122C25.597 25.5308 24.0395 26.8607 22.1915 26.9523C20.4642 27.0381 17.7803 27.125 13.9997 27.125C10.2192 27.125 7.53524 27.0381 5.80799 26.9523C3.95999 26.8607 2.40249 25.5308 2.22341 23.6122C2.12308 22.5353 2.04199 21.0945 2.04199 19.25C2.04199 17.4055 2.12366 15.9647 2.22399 14.8878C2.40308 12.9692 3.96058 11.6392 5.80858 11.5477L5.84241 11.5459L6.17491 7.56117ZM16.3337 18.0833C16.3337 18.4354 16.254 18.7829 16.1007 19.0998C15.9473 19.4167 15.7242 19.6948 15.4482 19.9132L15.8197 21.5057C15.9481 22.057 15.6523 22.6042 15.0923 22.6806C14.7972 22.7208 14.4332 22.75 14.0003 22.75C13.5675 22.75 13.2035 22.7208 12.9083 22.68C12.3483 22.6042 12.052 22.057 12.1809 21.5063L12.5525 19.9132C12.2426 19.668 12.0001 19.3482 11.8476 18.9836C11.6952 18.619 11.6378 18.2217 11.6809 17.8288C11.724 17.436 11.8662 17.0606 12.0941 16.7378C12.322 16.4149 12.6282 16.1553 12.9839 15.9831C13.3396 15.811 13.7332 15.732 14.1278 15.7536C14.5223 15.7752 14.905 15.8966 15.2398 16.1065C15.5746 16.3164 15.8506 16.6079 16.0419 16.9537C16.2333 17.2995 16.3336 17.6882 16.3337 18.0833Z" fill="#262626"/>
</svg>
