<svg width="34" height="34" viewBox="0 0 34 34" fill="none" xmlns="http://www.w3.org/2000/svg">
<path d="M1.41699 28.3335V24.3668C1.41699 23.564 1.62383 22.8264 2.03749 22.154C2.45116 21.4815 2.99988 20.9677 3.68366 20.6126C5.14755 19.8807 6.63505 19.332 8.14616 18.9665C9.65727 18.601 11.192 18.4177 12.7503 18.4168C14.3087 18.4158 15.8434 18.5991 17.3545 18.9665C18.8656 19.3338 20.3531 19.8826 21.817 20.6126C22.5017 20.9668 23.0509 21.4806 23.4646 22.154C23.8782 22.8273 24.0846 23.565 24.0837 24.3668V28.3335H1.41699ZM26.917 28.3335V24.0835C26.917 23.0446 26.628 22.0468 26.05 21.09C25.472 20.1333 24.6513 19.3131 23.5878 18.6293C24.792 18.771 25.9253 19.0132 26.9878 19.356C28.0503 19.6989 29.042 20.1177 29.9628 20.6126C30.8128 21.0848 31.4621 21.61 31.9107 22.188C32.3594 22.766 32.5837 23.3978 32.5837 24.0835V28.3335H26.917ZM12.7503 17.0001C11.192 17.0001 9.85796 16.4453 8.74824 15.3355C7.63852 14.2258 7.08366 12.8918 7.08366 11.3335C7.08366 9.77512 7.63852 8.44109 8.74824 7.33137C9.85796 6.22165 11.192 5.66678 12.7503 5.66678C14.3087 5.66678 15.6427 6.22165 16.7524 7.33137C17.8621 8.44109 18.417 9.77512 18.417 11.3335C18.417 12.8918 17.8621 14.2258 16.7524 15.3355C15.6427 16.4453 14.3087 17.0001 12.7503 17.0001ZM26.917 11.3335C26.917 12.8918 26.3621 14.2258 25.2524 15.3355C24.1427 16.4453 22.8087 17.0001 21.2503 17.0001C20.9906 17.0001 20.66 16.9708 20.2587 16.9123C19.8573 16.8537 19.5267 16.7886 19.267 16.7168C19.9045 15.9612 20.3947 15.123 20.7375 14.2022C21.0803 13.2814 21.2513 12.3251 21.2503 11.3335C21.2494 10.3418 21.0784 9.38553 20.7375 8.4647C20.3965 7.54387 19.9064 6.70567 19.267 5.95012C19.5975 5.83206 19.9281 5.75509 20.2587 5.7192C20.5892 5.68331 20.9198 5.66584 21.2503 5.66678C22.8087 5.66678 24.1427 6.22165 25.2524 7.33137C26.3621 8.44109 26.917 9.77512 26.917 11.3335Z" fill="#262626"/>
</svg>
